<?xml version="1.0" encoding="UTF-8" standalone="no"?>
<!-- Created with Inkscape (http://www.inkscape.org/) -->

<svg
   version="1.1"
   id="svg1"
   width="287.19577"
   height="237.48"
   viewBox="0 0 287.19577 237.48"
   xmlns="http://www.w3.org/2000/svg"
   xmlns:svg="http://www.w3.org/2000/svg">
  <defs
     id="defs1">
    <linearGradient
       id="swatch13">
      <stop
         style="stop-color:#000000;stop-opacity:1;"
         offset="0"
         id="stop13" />
    </linearGradient>
    <linearGradient
       id="swatch9">
      <stop
         style="stop-color:#000000;stop-opacity:1;"
         offset="0"
         id="stop9" />
    </linearGradient>
    <linearGradient
       id="linearGradient7">
      <stop
         style="stop-color:#a1a1a1;stop-opacity:0.7283237;"
         offset="0"
         id="stop7" />
      <stop
         style="stop-color:#000000;stop-opacity:0;"
         offset="0.54258674"
         id="stop8" />
    </linearGradient>
  </defs>
  <g
     id="layer1"
     transform="translate(-18.108053,-2.0006759)">
    <path
       style="fill:#e91c46;fill-opacity:1;stroke:none"
       d="m 22.40757,197.66678 c -5.320047,-24.13244 9.524701,-44.03596 37.012504,-62.22102 l -7.802636,-5.6019 c 20.334535,1.15923 42.412685,12.87841 61.820882,23.20784 l -0.20006,-2.80094 c -3.6026,-8.60291 -2.35774,-17.20581 0.40013,-25.80872 l 8.60291,20.00676 4.00135,-1.20041 c 0.27743,-7.23044 3.59364,-12.94149 5.80196,-19.20648 6.07323,5.59867 16.08175,8.38641 15.4052,18.80635 16.68277,1.03954 31.04853,2.2435 15.92462,-65.379449 l -1.31969,-2.243397 -1.60054,-4.801623 -5.49302,-13.713464 9.89451,6.110896 c 20.05992,-17.03256 45.3148,-37.17127 69.62352,-51.017235 L 274.6928,3.2010814 305.30314,14.805002 v 1.800608 c -45.09189,21.905736 -40.23863,52.135662 -21.80737,84.62859 -14.00489,-12.161674 -57.27449,34.48772 -44.415,49.21663 -6.69514,-5.01606 -20.82562,-1.46804 -17.60595,58.6198 l 9.00304,7.60257 -5.20176,6.8023 -3.80128,-5.00169 -1.40047,17.20581 -18.80636,-6.40216 6.00203,7.60257 -6.20209,2.60087 -2.60088,-10.60358 C 168.66393,215.00646 118.88415,180.57903 116.43934,211.87158 94.014142,194.16062 74.443586,184.19798 66.822575,206.66982 53.289234,194.25852 40.999377,172.64543 22.40757,197.66678 Z"
       id="path1" />
    <path
       style="fill:#150206;fill-opacity:1;stroke:none"
       d="m 66.422442,207.66948 c -27.91089,-35.6431 -33.07739,-15.09418 -44.01487,-8.80297 l -2.80095,-17.60595 9.20311,-23.60798 32.01082,-21.20716 -12.40419,-4.80162 c 13.16657,3.10216 5.57451,-9.01867 62.821218,26.40892 l 0.40013,11.20378 -36.812428,-27.60932 c 12.67909,23.04586 17.50558,41.51105 41.614058,71.22406 C 98.626682,194.99017 83.331522,173.37591 70.423792,142.84758 l -16.00541,26.80906 z"
       id="path13" />
    <path
       style="fill:#99015b;fill-opacity:1;stroke:none;stroke-width:1.26331;stroke-opacity:1"
       d="m 190.46434,210.68937 c 13.49881,6.88408 20.30203,15.10728 28.80974,22.98958 l -16.53892,-30.17383 -11.20379,-1.43685 z"
       id="path17" />
    <path
       style="fill:#3f002a;fill-opacity:1;stroke:none;stroke-opacity:1"
       d="m 165.94332,66.773438 49.65566,-50.928893 58.85117,-12.4492854 3.39526,5.961812 C 225.16222,15.245241 200.72012,51.494038 165.94332,66.773438 Z"
       id="path65" />
    <path
       style="fill:#00457f;fill-opacity:1;stroke:none;stroke-width:1.05243;stroke-opacity:1"
       d="m 177.68525,163.79208 -31.50127,-19.21061 -3.30013,7.97979 c 12.87207,26.8406 25.12527,34.7645 34.8014,11.23082 z"
       id="path48" />
    <path
       style="fill:#071601;fill-opacity:1;stroke:none;stroke-opacity:1"
       d="m 184.46232,167.65664 -9.60325,-4.00135 -10.40351,-14.00474 21.20716,-23.20783 -22.8077,-52.817847 -8.00271,-17.205813 9.60325,7.202433 4.00135,1.200406 C 185.16252,51.74508 201.45745,36.443006 218.94717,25.135121 235.97038,14.128856 254.12548,6.9065446 274.89287,9.2031091 l -0.40014,-6.002028 30.81041,12.0040559 C 219.02549,10.212532 210.76079,44.226404 174.85907,64.421763 l 39.61339,0.80027 C 240.96405,76.718873 264.26961,88.67086 283.2957,101.2342 258.51256,90.623765 237.1972,77.239103 207.67016,70.423791 h -35.2119 c 26.5215,26.42434 52.00713,52.952269 68.02298,80.427169 -23.07446,-26.93749 -46.14892,-52.011318 -69.22338,-73.624871 l 23.60797,51.617441 -12.00405,15.20513 -4.40149,16.40554 z"
       id="path14" />
    <path
       style="fill:#fed18d;fill-opacity:1;stroke:none;stroke-opacity:1"
       d="m 209.2707,166.45623 c -4.09007,-8.84704 -7.86677,-17.06732 -14.00473,-30.01014 l 1.60054,-9.20311 -23.60798,-47.215945 c 21.32523,21.336165 41.66678,42.391275 55.61879,61.620815 -15.2416,1.73992 -16.70702,13.81196 -19.60662,24.80838 z"
       id="path18" />
    <path
       style="fill:#feb46b;fill-opacity:1;stroke:none;stroke-opacity:1"
       d="m 230.87799,133.24502 c 1.79967,-11.67529 3.93887,-21.65295 6.8023,-28.00947 -17.62214,-13.630795 -37.54017,-21.521893 -57.21933,-30.010137 -7.51274,-3.233797 -7.77551,-7.97127 50.41703,58.019607 z"
       id="path19" />
    <path
       style="fill:#fb5f20;fill-opacity:1;stroke:none;stroke-opacity:1"
       d="m 236.88003,104.43528 c 3.79513,-3.20108 5.09059,-6.402162 14.805,-9.603243 -19.58549,-11.667328 -41.65962,-15.868722 -64.42176,-18.006083 16.88848,8.678776 34.68904,15.989411 49.61676,27.609326 z"
       id="path20" />
    <path
       style="fill:#d20d5c;fill-opacity:1;stroke:none;stroke-opacity:1"
       d="M 249.68435,93.631631 258.0872,88.83001 C 243.20933,80.942786 225.61268,74.850827 209.67084,69.623521 l -33.61136,0.80027 6.8023,4.401487 c 37.21125,6.210292 34.64321,4.580934 66.82257,18.806353 z"
       id="path21" />
    <path
       style="fill:#8b005c;fill-opacity:1;stroke:none;stroke-opacity:1"
       d="m 274.09327,43.614734 c 4.40398,-13.736105 18.60864,-20.821939 31.21055,-28.409597 l -32.41095,-0.400136 c -16.67478,2.171808 -26.39783,4.422126 -36.01217,7.602568 -20.09636,9.513644 -37.2064,21.213337 -52.01757,36.012166 20.00676,-9.246728 40.01351,-16.731872 60.02027,-19.606623 13.32394,0.165614 21.04676,2.571676 29.20987,4.801622 z"
       id="path23" />
    <path
       style="fill:#ff601f;fill-opacity:1;stroke:none;stroke-opacity:1"
       d="m 177.25988,64.021628 13.20447,-9.603244 c 22.53789,-8.133026 42.72185,-13.111849 60.02027,-16.005407 -3.32746,17.03734 -0.67263,32.579108 8.80298,46.41568 L 213.67219,64.821898 Z"
       id="path24" />
    <path
       style="fill:#9a0460;fill-opacity:1;stroke:none;stroke-opacity:1"
       d="m 76.425819,142.44812 35.211891,26.80906 -0.40013,7.60257 -28.409598,-19.20649 z"
       id="path34" />
    <path
       style="fill:#fe5722;fill-opacity:1;stroke:none;stroke-opacity:1"
       d="m 82.827986,156.45286 31.610684,22.80771 7.60256,12.40419 -21.10713,-0.90031 C 92.252399,181.97358 88.646734,168.10668 82.827986,156.45286 Z"
       id="path33" />
    <path
       style="fill:#98025b;fill-opacity:1;stroke:none;stroke-opacity:1"
       d="m 192.46502,53.618114 c 20.24835,-6.890181 40.0105,-11.747166 57.21933,-15.605272 -0.48744,-11.098287 -2.77716,-12.887545 -5.20175,-17.205812 -23.33725,9.471188 -38.1339,20.188703 -52.01758,32.811084 z"
       id="path25" />
    <path
       style="fill:#fb5b20;fill-opacity:1;stroke:none;stroke-opacity:1"
       d="m 220.87462,191.26461 -12.00406,-26.00878 3.60122,-46.41568 26.80906,30.81041 c -11.90879,-4.60347 -17.15205,12.12273 -18.40622,41.61405 z"
       id="path40" />
    <path
       style="fill:#98025b;fill-opacity:1;stroke:none;stroke-opacity:1"
       d="m 250.48462,94.031767 14.00473,9.203113 13.60459,-5.201761 c -7.60257,-3.33446 -13.60458,-6.268785 -21.20715,-9.603245 z"
       id="path26" />
    <path
       style="fill:#fd5c16;fill-opacity:1;stroke:none;stroke-opacity:1"
       d="m 236.07975,104.03515 13.6046,13.20446 c -9.52376,9.93243 -10.12435,18.49101 -13.60458,26.40893 -5.72794,-6.92834 -4.9821,-10.18386 -7.60258,-14.00475 z"
       id="path27" />
    <path
       style="fill:#8c005c;fill-opacity:1;stroke:none;stroke-opacity:1"
       d="m 68.823251,140.04731 4.80162,7.60257 c -0.71642,15.44775 -0.71847,30.81614 8.0027,45.21527 -5.18549,0.23095 -11.074101,8.24725 -15.205131,14.805 -5.51286,-12.07819 -10.480085,-25.67204 -12.804325,-38.8131 5.09319,-11.96992 11.154356,-21.00946 15.205136,-28.80974 z"
       id="path28" />
    <path
       style="fill:#071601;fill-opacity:1;stroke:none;stroke-opacity:1"
       d="m 229.27746,216.47313 -7.60257,-6.00203 -28.00946,-39.21325 -7.60257,12.40419 -14.40487,-12.00406 c -14.16915,11.72808 -20.6979,-7.10541 -28.80973,-19.60661 8.23399,28.79437 -25.24025,20.69474 -32.97891,24.75983 -0.5543,2.0102 14.42222,4.18754 18.57404,2.84949 7.51679,10.18565 15.5116,20.66595 37.61271,23.60798 8.15398,9.42408 16.17918,18.90336 31.61068,25.20851 l 0.40013,7.20244 5.20176,2.00067 2.80095,-3.20108 -5.6019,-6.8023 -4.80162,-21.20716 24.80838,6.8023 4.80162,9.60324 z"
       id="path15" />
    <path
       style="fill:#c30e5d;fill-opacity:1;stroke:none;stroke-opacity:1"
       d="M 110.43731,207.27002 81.227441,192.86516 c -9.739685,-13.8177 -8.170746,-28.76626 -7.602568,-43.61474 11.078838,19.57826 16.145098,40.35904 36.812437,58.0196 z"
       id="path32" />
    <path
       style="fill:#fb2943;fill-opacity:1;stroke:none;stroke-width:0.933562;stroke-opacity:1"
       d="m 120.78307,191.85136 c 10.207,0.55509 12.52843,-0.0263 19.23789,2.12751 -3.40366,-4.10984 -8.99186,-9.44588 -11.60373,-13.0539 -3.99721,-0.24853 -10.50298,-3.50956 -16.64266,-2.61846 z"
       id="path35" />
    <path
       style="fill:#d01149;fill-opacity:1;stroke:none;stroke-width:0.855545;stroke-opacity:1"
       d="m 120.33771,191.42613 c 4.29333,-0.0383 8.66802,-0.23927 12.71121,0.22274 19.98061,10.1439 34.19614,20.04942 37.30864,22.4235 -13.69319,-7.67156 -31.34982,-14.50294 -44.8834,-14.67482 z"
       id="path36" />
    <path
       style="fill:#fd6521;fill-opacity:1;stroke:none;stroke-width:1.00905;stroke-opacity:1"
       d="m 155.71916,143.20193 c 20.26993,-25.73412 10.15668,-48.867067 6.83758,-67.576381 7.51028,13.67743 18.73111,32.352681 21.90557,52.417701 -7.6721,5.53132 -22.07936,14.57892 -28.74315,15.15868 z"
       id="path37" />
    <path
       style="fill:#feb46b;fill-opacity:1;stroke:none;stroke-opacity:1"
       d="m 196.86651,126.84285 -2.40081,11.20379 14.805,28.00946 c 3.91916,-19.30958 11.04575,-24.18575 19.20649,-24.40825 l -17.60595,-22.00743 c -4.92968,0.57073 -10.08934,-0.46835 -14.00473,7.20243 z"
       id="path38" />
    <path
       style="fill:#fed18d;fill-opacity:1;stroke:none;stroke-opacity:1"
       d="M 214.87259,115.23893 227.27678,98.033118 177.25988,73.624873 Z"
       id="path39" />
    <path
       style="fill:#fb5b20;fill-opacity:1;stroke:none;stroke-opacity:1"
       d="m 207.2943,190.39361 1.87637,-24.48757 c -4.28677,-9.45319 -9.65001,-18.3562 -14.65495,-27.80939 -5.18613,15.13569 -3.98173,34.57646 12.77858,52.29696 z"
       id="path41" />
    <path
       style="fill:#8e0a56;fill-opacity:1;stroke:none;stroke-width:1.10392;stroke-opacity:1"
       d="m 128.41966,180.38322 11.11746,14.75657 12.31788,5.08343 c -9.80567,-4.43136 -16.04964,-13.47267 -23.43534,-19.84 z"
       id="path43" />
    <path
       style="fill:#f6f8e5;fill-opacity:1;stroke:none;stroke-width:1.08899;stroke-opacity:1"
       d="m 147.44602,141.26032 c 0.30357,2.42096 -0.27544,4.3852 -0.74252,5.64866 2.71665,1.20697 4.3708,2.12428 7.50854,3.33126 24.7332,-17.49537 21.10783,-16.52168 30.97107,-24.33269 -12.7543,7.40672 -22.97642,21.42364 -37.73709,15.35277 z"
       id="path44" />
    <path
       style="fill:#05285e;fill-opacity:1;stroke:none;stroke-opacity:1"
       d="m 175.65934,164.05542 -15.60527,-10.00338 23.20784,-28.00946 -21.20716,-56.419059 26.40892,58.419739 -22.40757,21.6073 z"
       id="path45" />
    <path
       style="fill:#054685;fill-opacity:1;stroke:none;stroke-opacity:1"
       d="m 121.38053,170.61179 -5.09289,-3.96113 c 0.47243,-3.86734 2.52083,-8.68027 5.65877,-14.14692 l 13.2981,3.6782 c 5.50786,10.74569 8.15395,19.35865 -13.86398,14.42985 z"
       id="path57" />
    <path
       style="fill:#38c1f1;fill-opacity:1;stroke:none;stroke-opacity:1"
       d="m 160.00405,154.00203 -5.71762,-3.92706 c 4.13354,-3.37235 15.33435,-11.4962 24.77406,-18.83063 z"
       id="path46" />
    <path
       style="fill:#05285e;fill-opacity:1;stroke:none;stroke-opacity:1"
       d="m 193.60053,171.2484 -18.8154,-7.63933 -3.25379,7.99301 14.64206,12.30781 z"
       id="path47" />
    <path
       style="fill:#00457f;fill-opacity:1;stroke:none;stroke-opacity:1"
       d="m 156.44544,196.62269 -22.63506,-11.88341 11.31753,13.01516 z"
       id="path49" />
    <path
       style="fill:#00457f;fill-opacity:1;stroke:none;stroke-opacity:1"
       d="m 62.812303,135.81038 -31.68909,23.20094 -10.75166,23.20094 1.69763,14.14692 -3.96113,-17.54218 11.88341,-24.33269 z"
       id="path50" />
    <path
       style="fill:#38c1f1;fill-opacity:1;stroke:none;stroke-opacity:1"
       d="m 154.28643,150.21644 c -2.21298,1.87341 -4.34192,3.85187 -3.60121,9.41739 -1.33378,-3.53346 -2.66757,-5.59663 -4.00135,-12.61848 z"
       id="path51" />
    <ellipse
       style="fill:#f2492d;fill-opacity:1;stroke:none;stroke-width:1.27733;stroke-opacity:1"
       id="path72-1-23-8"
       cx="132.93935"
       cy="134.2744"
       rx="4.8099513"
       ry="8.7710867" />
    <ellipse
       style="fill:#c40c4b;fill-opacity:1;stroke:none;stroke-width:1.60975;stroke-opacity:1"
       id="path72-1-23"
       cx="135.03886"
       cy="140.90285"
       rx="7.6393342"
       ry="8.7710867" />
    <ellipse
       style="fill:#cc1949;fill-opacity:1;stroke:none;stroke-width:1.521;stroke-opacity:1"
       id="path72-1-2"
       cx="135.17606"
       cy="145.62961"
       rx="6.9319882"
       ry="8.6296177" />
    <ellipse
       style="fill:#740844;fill-opacity:1;stroke:none;stroke-width:1.60975;stroke-opacity:1"
       id="path72-1"
       cx="136.87486"
       cy="146.01089"
       rx="7.6393342"
       ry="8.7710867" />
    <ellipse
       style="fill:#5a0548;fill-opacity:1;stroke:none;stroke-width:1.1754;stroke-opacity:1"
       id="path72"
       cx="136.51773"
       cy="148.68407"
       rx="4.9514198"
       ry="7.2149267" />
    <path
       style="fill:#050620;fill-opacity:0.972549;stroke:none;stroke-opacity:1"
       d="m 133.24501,151.2511 -6.90232,-7.90267 c 0.19079,-9.38837 2.81303,-14.81417 6.10205,-19.70666 -6.5211,16.813 -3.52658,21.33144 0.80027,27.60933 z"
       id="path52" />
    <path
       style="fill:#fdf4d7;fill-opacity:1;stroke:none;stroke-opacity:1"
       d="m 121.64109,154.45218 5.20176,-11.22806 c -4.3321,-0.23505 -8.89569,2.96358 -13.60459,7.62684 -3.6086,5.60189 -2.1101,11.48672 -1.50763,17.08862 l 0.27879,-10.12058 z"
       id="path53" />
    <path
       style="fill:#56cbec;fill-opacity:1;stroke:none;stroke-opacity:1"
       d="m 111.62626,167.86528 5.22137,-0.98023 c -0.44765,-4.22789 3.03681,-8.45579 4.98157,-12.68368 l -9.6199,2.26351 c -1.25027,3.35318 -1.36217,7.26365 -0.58304,11.4004 z"
       id="path54" />
    <path
       style="fill:#071601;fill-opacity:1;stroke:none;stroke-width:1.17846;stroke-opacity:1"
       d="m 131.62362,123.76397 c 11.27725,16.19404 12.85587,17.69844 10.36446,30.55733 3.38615,-4.69209 7.35314,-9.06758 4.69334,-17.05526 -3.0398,-7.1827 -9.02586,-9.94379 -15.0578,-13.50207 z"
       id="path16" />
    <path
       style="fill:#56cbec;fill-opacity:1;stroke:none;stroke-opacity:1"
       d="m 121.66347,153.91843 c 4.41077,1.02735 8.88499,2.02932 9.6199,4.52702 3.712,-0.73506 6.12103,-2.15333 3.11232,-7.3564 -3.23649,0.0379 -6.21407,-2.5918 -7.92227,-7.07346 -2.79558,2.82938 -4.18102,7.07346 -4.80995,9.90284 z"
       id="path55" />
    <path
       style="fill:#011b54;fill-opacity:1;stroke:none;stroke-opacity:1"
       d="m 115.08828,176.80107 6.57519,-7.03809 c 19.15013,0.18336 15.93615,-2.65232 11.88341,-18.39099 l 9.6199,1.41469 c 9.44929,20.53638 -8.51788,23.5618 -28.0785,24.01439 z"
       id="path56" />
    <circle
       style="fill:#14000d;fill-opacity:1;stroke:none;stroke-opacity:1"
       id="path30"
       cx="126.64278"
       cy="162.65495"
       r="3.8012841" />
    <circle
       style="fill:#fff9fd;fill-opacity:1;stroke:none;stroke-opacity:1"
       id="path31"
       cx="126.54276"
       cy="161.05441"
       r="0.95032865" />
    <path
       style="fill:#f6f8e5;fill-opacity:1;stroke:none;stroke-opacity:1"
       d="m 131.64447,150.85096 -7.20243,-7.20243 c 7.33784,-23.5459 6.19159,-19.03647 7.60257,-20.4069 -2.3941,7.86815 -8.48486,13.05914 -1.67938,26.15872 0.39409,0.75857 0.81991,0.95903 1.27924,1.45061 z"
       id="path58" />
    <path
       style="fill:#f6f8e5;fill-opacity:1;stroke:none;stroke-opacity:1"
       d="m 112.03785,152.05137 c -1.34725,-9.49434 -3.60031,-21.14033 1.20041,-29.61001 l 1.60054,4.00136 c -5.12512,7.83764 -3.91519,16.73112 -2.80095,25.60865 z"
       id="path59" />
    <path
       style="fill:#fe5722;fill-opacity:1;stroke:none;stroke-opacity:1"
       d="m 113.38831,150.40081 c -4.43509,-8.91891 -2.33651,-16.4927 1.05035,-23.15782 3.25013,5.24518 5.32534,11.16175 7.7026,16.90571 z"
       id="path60" />
    <path
       style="fill:#187eb9;fill-opacity:1;stroke:none;stroke-opacity:1"
       d="m 121.11397,170.36279 -5.87504,6.34691 c -2.2589,0.40867 -3.38334,0.60133 -5.90198,0.75025 l -2.45941,-3.94276 c 1.85209,-2.01085 3.22714,-4.49875 4.70869,-6.385 l 5.15322,-0.0758 c 1.34815,0.99445 3.55929,2.04545 4.37452,3.30636 z"
       id="path61" />
    <path
       style="fill:#e9efe3;fill-opacity:1;stroke:none;stroke-opacity:1"
       d="m 116.83843,166.76136 -3.40011,6.09704 -6.40216,0.6002 4.60155,-6.40216 z"
       id="path62" />
    <path
       style="fill:#071601;fill-opacity:1;stroke:none;stroke-opacity:1"
       d="m 133.92809,151.76843 c 1.05232,-9.67205 4.27459,-8.27925 8.52003,1.08321 z"
       id="path63" />
    <path
       style="fill:#080122;fill-opacity:1;stroke:none;stroke-opacity:1"
       d="m 164.10422,63.378178 51.49477,-49.231263 15.84454,-3.961137 -13.58104,7.922273 -3.96113,1.131753 -50.36302,50.363017 z"
       id="path64" />
    <path
       style="fill:#00447d;fill-opacity:1;stroke:none;stroke-opacity:1"
       d="M 164.67009,62.246425 213.90135,13.015162 275.5819,2.2635064 215.03311,16.410421 Z"
       id="path66" />
    <path
       style="fill:#fdf4d7;fill-opacity:1;stroke:none;stroke-opacity:1"
       d="M 163.65529,63.221358 212.47178,10.80365 276.49341,2.0006759 213.67218,14.004731 Z"
       id="path67" />
    <path
       style="fill:#6bd9f6;fill-opacity:1;stroke:none;stroke-opacity:1"
       d="m 112.04357,152.2208 c -58.091176,-29.06432 -48.966078,-19.26922 -63.095245,-22.918 20.748808,6.42468 41.497617,14.48982 62.246425,29.14265 z"
       id="path68" />
    <path
       style="fill:#f6f8e5;fill-opacity:1;stroke:none;stroke-opacity:1"
       d="m 60.124388,130.43455 -18.390989,-2.54644 c 2.347504,1.37491 4.520381,2.81391 8.558883,4.52701 5.087147,-0.1587 9.509593,0.16421 15.349403,2.26351 -0.604021,-1.04417 -1.229077,-2.09465 -5.517297,-4.24408 z"
       id="path69" />
    <path
       style="fill:#ea5e62;fill-opacity:1;stroke:none;stroke-width:1.12663;stroke-opacity:1"
       d="m 113.54152,177.03347 c 0.20436,-2.13202 0.63857,-2.76789 0.35803,-4.79255 -2.41161,-0.0127 -4.42627,-0.32056 -7.03918,0.78084 0.59007,1.71582 1.31091,2.9103 2.59295,4.62612 z"
       id="path70" />
    <ellipse
       style="fill:#310607;fill-opacity:1;stroke:none;stroke-width:0.964364;stroke-opacity:1"
       id="path71"
       cx="131.30211"
       cy="161.3201"
       rx="0.9003042"
       ry="2.3257856"
       transform="rotate(6.2897384)" />
    <ellipse
       style="fill:#310607;fill-opacity:1;stroke:none;stroke-width:0.835742;stroke-opacity:1"
       id="path71-8"
       cx="50.226021"
       cy="203.47363"
       rx="0.93025547"
       ry="2.231478"
       transform="matrix(0.92859294,-0.37109991,0.30806342,0.95136582,0,0)" />
  </g>
</svg>
